<?xml version="1.0" encoding="UTF-8" standalone="no"?><!-- Generator: Gravit.io --><svg xmlns="http://www.w3.org/2000/svg" xmlns:xlink="http://www.w3.org/1999/xlink" style="isolation:isolate" viewBox="0 0 150 150" width="150pt" height="150pt"><path d=" M 74.994 6.948 C 36.468 6.948 5.225 38.187 5.225 76.727 C 5.225 107.552 25.216 133.705 52.942 142.932 C 56.433 143.572 57.706 141.418 57.706 139.569 C 57.706 137.913 57.646 133.525 57.611 127.702 C 38.203 131.918 34.108 118.348 34.108 118.348 C 30.934 110.288 26.359 108.142 26.359 108.142 C 20.024 103.813 26.839 103.9 26.839 103.9 C 33.842 104.394 37.526 111.091 37.526 111.091 C 43.75 121.754 53.859 118.675 57.834 116.889 C 58.468 112.38 60.271 109.305 62.263 107.561 C 46.77 105.8 30.48 99.814 30.48 73.075 C 30.48 65.458 33.2 59.23 37.663 54.352 C 36.944 52.587 34.549 45.493 38.349 35.886 C 38.349 35.886 44.204 34.01 57.534 43.039 C 63.098 41.491 69.07 40.717 75.002 40.69 C 80.93 40.717 86.897 41.491 92.47 43.039 C 105.792 34.01 111.638 35.886 111.638 35.886 C 115.446 45.493 113.052 52.587 112.337 54.352 C 116.809 59.23 119.507 65.458 119.507 73.075 C 119.507 99.88 103.192 105.779 87.651 107.506 C 90.153 109.66 92.384 113.919 92.384 120.428 C 92.384 129.756 92.299 137.281 92.299 139.569 C 92.299 141.435 93.558 143.606 97.096 142.924 C 124.802 133.679 144.775 107.544 144.775 76.727 C 144.775 38.187 113.532 6.948 74.994 6.948 Z " fill-rule="evenodd" fill="rgb(50,49,49)"/></svg>