<?xml version="1.0" encoding="UTF-8" standalone="no"?><!-- Generator: Gravit.io --><svg xmlns="http://www.w3.org/2000/svg" xmlns:xlink="http://www.w3.org/1999/xlink" style="isolation:isolate" viewBox="0 0 250 25" width="250pt" height="25pt"><path d=" M 42.196 21.772 C 44.957 21.772 47.424 20.833 49.086 19.01 L 47.826 17.75 C 46.298 19.332 44.421 20.002 42.276 20.002 C 37.746 20.002 34.341 16.678 34.341 12.228 C 34.341 7.778 37.746 4.453 42.276 4.453 C 44.421 4.453 46.298 5.124 47.826 6.679 L 49.086 5.419 C 47.424 3.596 44.957 2.684 42.223 2.684 C 36.566 2.684 32.384 6.732 32.384 12.228 C 32.384 17.724 36.566 21.772 42.196 21.772 Z  M 59.846 21.772 C 65.476 21.772 69.685 17.724 69.685 12.228 C 69.685 6.732 65.476 2.684 59.846 2.684 C 54.163 2.684 49.981 6.759 49.981 12.228 C 49.981 17.697 54.163 21.772 59.846 21.772 Z  M 59.846 20.002 C 55.315 20.002 51.938 16.705 51.938 12.228 C 51.938 7.751 55.315 4.453 59.846 4.453 C 64.35 4.453 67.701 7.751 67.701 12.228 C 67.701 16.705 64.35 20.002 59.846 20.002 Z  M 72.858 21.611 L 85.351 21.611 L 85.351 19.895 L 74.842 19.895 L 74.842 2.845 L 72.858 2.845 L 72.858 21.611 Z  M 99.195 11.933 C 100.91 11.236 102.063 9.815 102.063 7.67 C 102.063 4.614 99.65 2.845 95.468 2.845 L 87.372 2.845 L 87.372 21.611 L 96.004 21.611 C 100.696 21.611 103.055 19.788 103.055 16.598 C 103.055 14.051 101.607 12.469 99.195 11.933 Z  M 95.334 4.48 C 98.337 4.48 100.079 5.633 100.079 7.885 C 100.079 10.137 98.337 11.29 95.334 11.29 L 89.356 11.29 L 89.356 4.48 L 95.334 4.48 Z  M 95.978 19.976 L 89.356 19.976 L 89.356 12.925 L 95.978 12.925 C 99.275 12.925 101.071 13.997 101.071 16.437 C 101.071 18.903 99.275 19.976 95.978 19.976 Z  M 119.847 2.845 L 117.864 2.845 L 111.43 13.381 L 104.996 2.845 L 102.878 2.845 L 110.384 15.123 L 110.384 21.611 L 112.341 21.611 L 112.341 15.123 L 119.847 2.845 Z " fill="rgb(0,0,0)"/><path d=" M 136.327 2.845 L 136.327 10.244 L 127.802 10.244 L 127.802 2.845 L 123.459 2.845 L 123.459 21.611 L 127.802 21.611 L 127.802 13.917 L 136.327 13.917 L 136.327 21.611 L 140.67 21.611 L 140.67 2.845 L 136.327 2.845 Z  M 148.16 18.126 L 148.16 13.783 L 156.873 13.783 L 156.873 10.405 L 148.16 10.405 L 148.16 6.33 L 158.025 6.33 L 158.025 2.845 L 143.844 2.845 L 143.844 21.611 L 158.374 21.611 L 158.374 18.126 L 148.16 18.126 Z  M 181.708 21.611 L 181.654 2.845 L 178.088 2.845 L 171.172 14.507 L 164.148 2.845 L 160.556 2.845 L 160.556 21.611 L 164.631 21.611 L 164.631 10.593 L 170.126 19.627 L 172.083 19.627 L 177.606 10.351 L 177.633 21.611 L 181.708 21.611 Z  M 193.969 21.933 C 199.867 21.933 204.237 17.831 204.237 12.228 C 204.237 6.625 199.867 2.523 193.969 2.523 C 188.045 2.523 183.702 6.652 183.702 12.228 C 183.702 17.804 188.045 21.933 193.969 21.933 Z  M 193.969 18.233 C 190.618 18.233 188.098 15.793 188.098 12.228 C 188.098 8.662 190.618 6.223 193.969 6.223 C 197.32 6.223 199.84 8.662 199.84 12.228 C 199.84 15.793 197.32 18.233 193.969 18.233 Z  M 219.153 2.845 L 219.153 14.239 L 209.823 2.845 L 206.231 2.845 L 206.231 21.611 L 210.52 21.611 L 210.52 10.217 L 219.877 21.611 L 223.442 21.611 L 223.442 2.845 L 219.153 2.845 Z  M 226.616 21.611 L 235.141 21.611 C 241.28 21.611 245.489 17.911 245.489 12.228 C 245.489 6.544 241.28 2.845 235.141 2.845 L 226.616 2.845 L 226.616 21.611 Z  M 230.959 18.045 L 230.959 6.41 L 234.926 6.41 C 238.653 6.41 241.092 8.636 241.092 12.228 C 241.092 15.82 238.653 18.045 234.926 18.045 L 230.959 18.045 Z " fill="rgb(0,0,0)"/><path d=" M 10.416 19.889 C 11.908 19.889 13.144 19.351 13.951 18.36 L 12.679 17.186 C 12.104 17.859 11.383 18.201 10.527 18.201 C 8.925 18.201 7.787 17.076 7.787 15.462 C 7.787 13.848 8.925 12.723 10.527 12.723 C 11.383 12.723 12.104 13.065 12.679 13.725 L 13.951 12.551 C 13.144 11.573 11.908 11.035 10.429 11.035 C 7.763 11.035 5.782 12.882 5.782 15.462 C 5.782 18.042 7.763 19.889 10.416 19.889 Z  M 21.154 11.182 L 21.154 14.557 L 17.265 14.557 L 17.265 11.182 L 15.284 11.182 L 15.284 19.742 L 17.265 19.742 L 17.265 16.232 L 21.154 16.232 L 21.154 19.742 L 23.135 19.742 L 23.135 11.182 L 21.154 11.182 Z " fill="rgb(0,0,0)"/><path d=" M 22.16 20.93 L 23.16 20.93 L 23.16 22.93 L 22.16 22.93 L 2.5 22.93 L 2.5 2.44 L 23.16 2.44 L 23.16 9.01 L 23.16 10.01 L 21.16 10.01 L 21.16 9.01 L 21.16 4.44 L 4.5 4.44 L 4.5 20.93 L 22.16 20.93 Z " fill="rgb(0,0,0)"/></svg>